<?xml version="1.0" encoding="utf-8"?>
<!-- Generator: Adobe Illustrator 23.0.2, SVG Export Plug-In . SVG Version: 6.00 Build 0)  -->
<svg version="1.1" id="Layer_1" xmlns="http://www.w3.org/2000/svg" xmlns:xlink="http://www.w3.org/1999/xlink" x="0px" y="0px"
	 viewBox="0 0 209.45 209.45" style="enable-background:new 0 0 209.45 209.45;" xml:space="preserve">
<style type="text/css">
	.st0{stroke:#000000;stroke-miterlimit:10;}
	.st1{fill:#FFFFFF;}
</style>
<g>
	<g>
		<path class="st0" d="M52.56,172.56v-18.35h19.77v-18.35h19.77V99.18H52.56v18.35H32.79V80.83h79.07v18.35h19.77v36.69h-19.77
			v18.35H92.09v18.35H52.56z M52.56,209.25v-18.35h39.53v18.35H52.56z"/>
	</g>
	<g>
		<path class="st1" d="M169.7,174.06c0,0-3.03-3.95-0.43-6.11c2.48-2.06,5.68,1.39,5.68,1.39s0-5.13,4.09-5.29
			c3.91-0.15,4.25,4.5,4.25,4.5s2.18-4.31,5.88-3.12c3.87,1.25,2.09,5.97,2.09,5.97s4.31-2.27,6.05,0.37
			c1.82,2.76-2.31,5.73-2.31,5.73s6.09-0.16,6.14,3.47c0.05,3.8-5.34,3.86-5.34,3.86s5.19,2.08,3.9,5.51
			c-1.34,3.6-6.44,1.94-6.44,1.94s2.44,4-0.4,5.61c-2.98,1.69-6.18-2.14-6.18-2.14s0.17,5.65-3.74,5.7
			c-4.1,0.05-3.62-4.88-3.62-4.88s-1.61,4.78-5.52,3.63c-3.74-1.09-1.81-6.46-1.81-6.46s-4.25,2.81-6.58,0.4
			c-2.22-2.3,1.36-5.48,1.36-5.48s-5.39,0.22-5.56-3.58c-0.16-3.63,5.45-4.23,5.45-4.23s-5.15-1.49-3.92-5.12
			C162.74,175.74,164.89,170.12,169.7,174.06z"/>
		<g>
			<path d="M170.13,173.81c-1.16-1.56-2.02-3.55-0.52-5.09c1.59-1.63,3.61-0.45,4.98,0.98c0.3,0.32,0.85,0.07,0.85-0.35
				c0.03-2.01,0.92-4.3,3.1-4.7c2.5-0.47,4.04,1.68,4.24,3.92c0.04,0.46,0.68,0.73,0.93,0.25c0.99-1.89,3.04-3.65,5.31-2.89
				c2.34,0.78,2.46,3.38,1.75,5.36c-0.16,0.44,0.38,0.75,0.73,0.56c1.4-0.71,3.82-1.45,5.09-0.14c1.73,1.79-0.36,4.28-1.86,5.39
				c-0.37,0.28-0.29,0.94,0.25,0.93c1.69-0.03,4.5,0.25,5.38,1.94c1.54,2.96-2.44,4.34-4.58,4.39c-0.6,0.01-0.63,0.78-0.13,0.98
				c1.95,0.81,4.78,2.89,3.36,5.3c-1.12,1.89-3.79,1.76-5.63,1.19c-0.42-0.13-0.78,0.37-0.56,0.73c1.02,1.73,1.63,4.46-0.99,5.11
				c-1.86,0.46-3.63-0.88-4.8-2.24c-0.29-0.33-0.86-0.06-0.85,0.35c0.04,1.99-0.54,4.7-2.8,5.13c-2.68,0.51-3.74-2.13-3.56-4.32
				c0.05-0.59-0.8-0.63-0.98-0.13c-0.77,2.19-3.04,4.43-5.46,2.98c-1.87-1.13-1.54-3.72-0.91-5.53c0.14-0.41-0.38-0.79-0.73-0.56
				c-1.29,0.83-3.18,1.65-4.72,1.21c-2.98-0.85-1.42-4.11,0.11-5.5c0.32-0.29,0.07-0.87-0.35-0.85c-2.14,0.06-5.33-0.75-5.02-3.5
				c0.25-2.19,3-3.09,4.91-3.32c0.54-0.06,0.71-0.81,0.13-0.98c-1.95-0.59-4.41-2.2-3.54-4.57c1.08-2.93,3.9-3.05,6.19-1.32
				c0.51,0.39,1.01-0.48,0.5-0.86c-2.79-2.1-6.26-1.76-7.61,1.79c-1.13,2.98,1.61,5.15,4.18,5.93c0.04-0.33,0.09-0.65,0.13-0.98
				c-2.5,0.29-5.83,1.53-5.94,4.48c-0.12,3.21,3.38,4.41,6.05,4.33c-0.12-0.28-0.24-0.57-0.35-0.85c-1.65,1.51-3.24,4.23-1.36,6.19
				c1.92,2,5.17,0.97,7.19-0.32c-0.24-0.19-0.49-0.38-0.73-0.56c-0.83,2.42-0.93,5.91,1.9,6.98c2.96,1.12,5.46-1.25,6.4-3.89
				c-0.33-0.04-0.65-0.09-0.98-0.13c-0.23,2.73,1.27,5.65,4.38,5.36c3.01-0.27,4.03-3.56,3.98-6.18c-0.28,0.12-0.57,0.24-0.85,0.35
				c1.64,1.91,4.63,3.73,7.03,2.05c2.06-1.44,1.43-4.25,0.33-6.12c-0.19,0.24-0.38,0.49-0.56,0.73c2.51,0.78,6.04,0.59,7.05-2.29
				c1.03-2.91-1.89-5.14-4.25-6.13c-0.04,0.33-0.09,0.65-0.13,0.98c2.71-0.06,6.32-1.52,5.8-4.83c-0.46-2.89-4.18-3.54-6.6-3.5
				c0.08,0.31,0.17,0.62,0.25,0.93c1.87-1.39,4.04-4.05,2.49-6.42c-1.49-2.28-4.69-1.59-6.73-0.55c0.24,0.19,0.49,0.38,0.73,0.56
				c0.83-2.3,0.56-5.21-1.88-6.36c-2.83-1.33-5.69,0.61-7.01,3.12c0.31,0.08,0.62,0.17,0.93,0.25c-0.24-2.72-2.06-5.26-5.04-4.97
				c-2.89,0.28-4.27,3.11-4.3,5.76c0.28-0.12,0.57-0.24,0.85-0.35c-1.56-1.63-4.29-3.12-6.33-1.43c-2.14,1.77-1.11,4.86,0.3,6.75
				C169.64,174.82,170.51,174.32,170.13,173.81z"/>
		</g>
	</g>
	<g>
		<path d="M19.23,63.18c12.66-21.94,22.48-38.87,50.5-52.87c33.16-16.58,68.86-9.11,92.47,2.72c18.99,9.52,45.94,33.47,47.23,66.38
			c1.19,30.28-13.2,62.38-22.18,85.59l-3.95,1.99l-1.39-2.72c-0.45-14.82-0.85-34.71-22.15-49.44l-5.34,8.15l-12.91,3.7l-58.33-39.2
			L32.36,75.48L19.23,63.18"/>
		<g>
			<path d="M19.66,63.43c5.05-8.76,10.1-17.6,16.35-25.58c6.58-8.41,14.51-15.55,23.54-21.25C70.83,9.47,83.24,4.38,96.46,2.32
				c12.57-1.96,25.47-1.3,37.88,1.41c19.78,4.32,38.12,13.51,52.34,28.04c7.55,7.71,13.88,16.77,17.83,26.85
				c4.46,11.38,5.16,23.39,3.87,35.45c-1.57,14.71-5.85,29.03-10.84,42.9c-2.3,6.37-4.77,12.68-7.27,18.98
				c-0.65,1.63-1.29,3.26-1.94,4.9c-0.4,1.01-0.72,2.98-1.4,3.76c-0.78,0.89-2.84,1.43-3.9,1.96c0.23,0.06,0.46,0.12,0.68,0.18
				c-0.84-1.64-1.32-2.67-1.38-4.52c-0.07-2.16-0.16-4.32-0.3-6.47c-0.33-4.82-0.98-9.63-2.29-14.29
				c-3.15-11.27-10.23-20.37-19.75-27.05c-0.23-0.16-0.55-0.03-0.68,0.18c-1.59,2.43-3.3,4.81-4.78,7.3
				c-0.17,0.28-0.87,0.98-0.28,0.62c-0.26,0.16-0.69,0.2-0.98,0.28c-1.58,0.45-3.16,0.91-4.75,1.36c-1.74,0.5-3.49,1-5.23,1.5
				c-0.51,0.15-1.06,0.38-1.58,0.45c-0.47,0.07-0.18,0.07,0.01,0.13c-0.86-0.26-1.85-1.24-2.59-1.74
				c-11.24-7.56-22.49-15.11-33.73-22.67c-5.49-3.69-10.99-7.38-16.48-11.07c-1.84-1.24-3.81-3.05-5.91-3.81
				c-4.29-1.55-9.18-2.17-13.61-3.22c-7.53-1.78-15.05-3.56-22.58-5.34c-3.36-0.79-6.71-1.59-10.07-2.38
				c-1.31-0.31-3.04-0.42-4.27-1.01c0.48,0.23-0.26-0.3-0.39-0.44c-0.42-0.42-0.88-0.82-1.31-1.23c-1.55-1.45-3.1-2.9-4.65-4.35
				c-2.19-2.05-4.38-4.1-6.56-6.15c-0.47-0.44-1.18,0.27-0.71,0.71c1.95,1.82,3.89,3.64,5.84,5.47c2.25,2.11,4.46,4.72,6.98,6.53
				c0.75,0.54,1.45,0.64,2.39,0.86c2.37,0.56,4.74,1.12,7.11,1.68c13.34,3.15,26.67,6.3,40.01,9.46c2.15,0.51,3.27,1.42,5.35,2.82
				c5.19,3.49,10.38,6.98,15.57,10.46c11.77,7.91,23.54,15.82,35.31,23.73c1.06,0.72,2.49,2.14,3.74,2.51
				c1.63,0.49,4.64-1.08,6.23-1.53c1.96-0.56,3.92-1.12,5.88-1.69c0.65-0.19,1.17-0.27,1.65-0.7c1.16-1.04,2.02-3.07,2.87-4.38
				c0.8-1.22,1.6-2.44,2.4-3.67c-0.23,0.06-0.46,0.12-0.68,0.18c9.95,6.98,16.99,16.64,19.82,28.52c1.11,4.65,1.6,9.41,1.85,14.17
				c0.1,1.94-0.13,4.16,0.23,6.07c0.22,1.14,0.93,2.19,1.46,3.23c0.13,0.25,0.45,0.3,0.68,0.18c1.17-0.59,2.73-1.06,3.73-1.88
				c1.21-0.98,1.72-3.68,2.29-5.12c2.32-5.88,4.67-11.75,6.9-17.67c4.88-12.97,9.25-26.22,11.66-39.9
				c2.14-12.15,2.92-24.87-0.2-36.92c-2.75-10.63-8.19-20.39-15.13-28.84C163.69,1.63,108.84-10.46,67.93,10.66
				c-11.26,5.81-21.5,13.36-29.77,23C30.51,42.57,24.65,52.8,18.8,62.93C18.48,63.49,19.34,63.99,19.66,63.43L19.66,63.43z"/>
		</g>
	</g>
	<g>
		<path class="st1" d="M158.02,117.67c15.81-14.74,19.31-39.4,16.5-58.61c1.23,10.33-0.45,20.99-4.85,30.56
			c0.93-14.31-11.54-37.83-13.54-40.67c9.96,18.52,13.75,39.15,6.66,58.78c-1.84,6.67-5.94,12.57-9.33,17.52"/>
		<g>
			<path d="M158.37,118.03c15.68-14.86,19.56-38.5,16.63-59.1c-0.08-0.55-1.04-0.43-0.98,0.13c1.15,10.38-0.49,20.78-4.78,30.3
				c0.31,0.08,0.62,0.17,0.93,0.25c0.45-8.46-2.56-17.04-5.69-24.77c-2.21-5.44-4.57-11.28-7.92-16.15
				c-0.36-0.53-1.17-0.07-0.86,0.5c6.4,12.03,10.56,25.39,10.22,39.11c-0.17,6.83-1.65,13.23-3.73,19.69
				c-2.01,6.25-5.48,11.61-9.16,16.98c-0.36,0.53,0.5,1.03,0.86,0.5c3.63-5.31,7.11-10.65,9.14-16.81
				c2.19-6.66,3.71-13.34,3.89-20.37c0.34-13.9-3.88-27.44-10.36-39.62c-0.29,0.17-0.58,0.34-0.86,0.5
				c3.3,4.79,5.65,10.55,7.82,15.91c3.1,7.64,6.1,16.13,5.65,24.5c-0.03,0.48,0.73,0.71,0.93,0.25c4.37-9.69,6.09-20.24,4.92-30.81
				c-0.33,0.04-0.65,0.09-0.98,0.13c2.88,20.25-0.97,43.53-16.37,58.13C157.2,117.76,157.91,118.47,158.37,118.03L158.37,118.03z"/>
		</g>
	</g>
	<g>
		<path class="st1" d="M161.07,130.17l0.02-0.2c0,0,4.1-0.16,3.8-2.66c-0.3-2.62-4.68-2.8-4.68-2.8s4.14-2.52,2.19-4.95
			c-1.46-1.81-3.7-1.17-4.88-0.65c0.6-1.05,1.34-3.05-0.66-4.38c-2.68-1.79-5.56,1.89-5.56,1.89s0.7-1.91-1.3-3.91
			c-1.04-1.04-4,0-4,0s2.29-0.5,2-3c-0.3-2.62-4.31-2.13-4.31-2.13s4.14-2.52,2.19-4.95c-1.46-1.81-3.7-1.17-4.88-0.65
			c0.6-1.05,1.34-3.05-0.66-4.38c-2.68-1.79-5.56,1.89-5.56,1.89s-0.15-3.92-3.06-4.23c-2.78-0.3-3.02,3.37-3.02,3.37l-0.22,0.01
			c0,0,1.52-3.91-2.48-5.91c-2.36-1.18-4.91,0.77-4.91,0.77s4.14-2.52,2.19-4.95c-1.46-1.81-3.7-1.17-4.88-0.65
			c0.6-1.05,1.34-3.05-0.66-4.38c-2.68-1.79-5.56,1.89-5.56,1.89s-0.15-3.92-3.06-4.23c-2.78-0.3-3.24,3.39-3.24,3.39
			S106,81.5,105,80.5c-2-2-4.43,0.72-4.43,0.72s4.14-2.52,2.19-4.95c-1.46-1.81-3.7-1.17-4.88-0.65c0.6-1.05,1.34-3.05-0.66-4.38
			c-2.68-1.79-5.56,1.89-5.56,1.89s-0.15-3.92-3.06-4.23c-2.78-0.3-3.02,3.37-3.02,3.37S84,68.5,79.96,70.51
			c-0.09,0.04-0.15,0.11-0.23,0.16c0.05-0.61-0.11-1.26-0.63-1.9c-1.46-1.81-3.7-1.17-4.88-0.65c0.6-1.05,1.78-2.62-0.66-4.38
			C70.94,61.85,68,65.63,68,65.63s-0.15-3.92-3.06-4.23c-2.78-0.3-3.02,3.37-3.02,3.37l-0.22,0.01c0,0-2.7-5.28-8.16-1.98
			c0.6-1.05,1.34-3.05-0.66-4.38c-2.68-1.79-5.56,1.89-5.56,1.89s-0.15-3.92-3.06-4.23c-2.78-0.3-3.02,3.37-3.02,3.37
			s-2.81-3.4-5.62-1.74c-2.69,1.59-0.26,5.32-0.26,5.32S32,59.5,27.06,61.67c0.6-1.05,1.34-3.05-0.66-4.38
			c-2.68-1.79-5.56,1.89-5.56,1.89s-0.15-3.92-3.06-4.23c-2.78-0.3-3.24,3.39-3.24,3.39s-2.59-3.42-5.4-1.75
			c-2.69,1.59-0.26,5.32-0.26,5.32s-3.69-2.47-5.67-0.03c-1.89,2.34,2.33,5.06,2.33,5.06s-4.37-0.03-4.6,2.58
			C0.72,72,4.82,72.35,4.82,72.35s-3.68,2.38-1.71,4.98c1.49,1.96,4.14,1.29,5.19,0.92c-0.42,0.93-1.21,3.3,0.95,4.67
			c2.86,1.8,5.35-1.49,5.35-1.49s0.57,3.71,3.34,3.55c2.91-0.17,2.94-4.09,2.94-4.09s2.98,3.82,5.61,2.16
			c2.76-1.74,0.05-5.08,0.05-5.08s3.45,5.53,8.23,1.41c-0.42,0.93-1.21,3.3,0.95,4.67c2.86,1.8,5.58-1.47,5.58-1.47
			s0.34,3.68,3.12,3.52c2.91-0.17,2.94-4.09,2.94-4.09S50,88.5,55.46,84.7c-0.42,0.93-1.21,3.3,0.95,4.67
			c2.86,1.8,5.58-1.47,5.58-1.47s0.34,3.68,3.12,3.52c2.91-0.17,2.94-4.09,2.94-4.09s0.95,5.17,5.31,2.32
			C72,93.5,78,94.5,79.12,92.19c-0.42,0.93-1.21,3.3,0.95,4.67c2.86,1.8,5.35-1.49,5.35-1.49s0.61,3.05,3.34,3.55
			C92,99.5,94,97.5,94,97.5s-1.53,3.23,0.44,5.82c1.49,1.96,4.14,1.29,5.19,0.92c-0.42,0.93-1.21,3.3,0.95,4.67
			c2.86,1.8,7.41-2.41,7.41-2.41s-1,4,3,6c3.22,1.61,6-1,6-1s-1.92,3.32,0.05,5.92c1.49,1.96,4.14,1.29,5.19,0.92
			c-0.42,0.93-1.21,3.3,0.95,4.67c2.86,1.8,5.35-1.49,5.35-1.49s0.45,4.99,5.73,1.83C132,124.5,132,125.5,132,126.5
			c0,2,3.29,3.08,3.29,3.08l0.02,0.2c0,0-3.71,2.18-1.74,4.78c1.49,1.96,4.14,1.29,5.19,0.92c-0.42,0.93-1.21,3.3,0.95,4.67
			c2.86,1.8,5.35-1.49,5.35-1.49l0.22,0.02c0,0,0.34,3.68,3.12,3.52c2.91-0.17,2.94-4.09,2.94-4.09s2.98,3.82,5.61,2.16
			c2.76-1.74,0.05-5.08,0.05-5.08l0.32,0.31c0,0,3.81,1.91,5.62-0.47C164.85,132.54,161.07,130.17,161.07,130.17z"/>
		<g>
			<path d="M161.57,130.17c-0.02,0.27-0.73,0.27,0.3,0.22c0.56-0.03,1.18-0.23,1.68-0.45c1.1-0.49,1.95-1.34,1.84-2.62
				c-0.2-2.4-3.2-3.19-5.18-3.3c0.08,0.31,0.17,0.62,0.25,0.93c1.45-0.91,3.28-2.57,2.91-4.48c-0.55-2.81-3.89-2.89-5.99-2.04
				c0.19,0.24,0.38,0.49,0.56,0.73c1.05-2.01,0.93-4.52-1.54-5.42c-2.07-0.75-4.22,0.78-5.46,2.32c0.28,0.16,0.56,0.32,0.84,0.49
				c0.46-1.5-0.27-3.49-1.48-4.43c-1.24-0.96-3.07-0.55-4.44-0.09c-0.61,0.2-0.36,1.12,0.27,0.96c1.79-0.46,2.86-2.4,2.22-4.16
				c-0.66-1.8-2.99-2.13-4.65-1.96c0.08,0.31,0.17,0.62,0.25,0.93c1.45-0.91,3.28-2.57,2.91-4.48c-0.55-2.81-3.89-2.89-5.99-2.04
				c0.19,0.24,0.38,0.49,0.56,0.73c1.05-2.01,0.93-4.52-1.54-5.42c-2.07-0.75-4.22,0.78-5.46,2.32c0.28,0.12,0.57,0.24,0.85,0.35
				c-0.11-2.09-1.21-4.53-3.56-4.73c-1.18-0.1-2.17,0.47-2.79,1.45c-0.29,0.47-0.6,1.16-0.63,1.71c-0.05,0.95-0.16,0.24,0.18,0.22
				c0.16,0.21,0.32,0.42,0.48,0.63c1.82-5-4.04-8.66-8.13-5.71c-0.51,0.37-0.05,1.21,0.5,0.86c1.45-0.91,3.28-2.57,2.91-4.48
				c-0.55-2.81-3.89-2.89-5.99-2.04c0.19,0.24,0.38,0.49,0.56,0.73c1.05-2.01,0.93-4.52-1.54-5.42c-2.07-0.75-4.22,0.78-5.46,2.32
				c0.28,0.12,0.57,0.24,0.85,0.35c-0.11-2.04-1.15-4.44-3.43-4.72c-2.23-0.27-3.57,1.75-3.86,3.73c0.33,0.04,0.65,0.09,0.98,0.13
				c0.05-1.64-0.11-3.83-1.73-4.71c-1.56-0.85-3.32,0.09-4.42,1.26c-0.38,0.4,0.11,1.1,0.61,0.79c1.45-0.91,3.28-2.57,2.91-4.48
				c-0.55-2.81-3.89-2.89-5.99-2.04c0.19,0.24,0.38,0.49,0.56,0.73c1.05-2.01,0.93-4.52-1.54-5.42c-2.07-0.75-4.22,0.78-5.46,2.32
				c0.28,0.12,0.57,0.24,0.85,0.35c-0.11-2.06-1.18-4.49-3.49-4.73c-2.27-0.23-3.42,1.88-3.58,3.86c0.31-0.08,0.62-0.17,0.93-0.25
				c-1.12-2.5-4.29-3.35-6.54-1.75c0.25,0.14,0.5,0.29,0.75,0.43c-0.14-3.37-3.46-4.12-6.14-3.04c0.19,0.24,0.38,0.49,0.56,0.73
				c1.21-2.09,1.11-4.37-1.49-5.42c-2.08-0.84-4.27,0.77-5.52,2.32c0.28,0.12,0.57,0.24,0.85,0.35c-0.09-1.66-0.76-3.61-2.34-4.39
				c-2.09-1.04-3.93,0.31-4.52,2.34c-0.06,0.2-0.28,0.77-0.19,0.99c0.02,0.05,0.59-0.21,0.59-0.21c-0.03-0.55-1.14-1.47-1.51-1.78
				c-2.21-1.85-4.83-1.52-7.23-0.2c0.23,0.23,0.46,0.46,0.68,0.68c1.05-2.01,0.93-4.52-1.54-5.42c-2.07-0.75-4.22,0.78-5.46,2.32
				c0.28,0.12,0.57,0.24,0.85,0.35c-0.11-2.06-1.18-4.49-3.49-4.73c-2.27-0.23-3.42,1.88-3.58,3.86c0.28-0.12,0.57-0.24,0.85-0.35
				c-1.54-1.8-4.31-3.23-6.48-1.63c-1.93,1.42-1.3,4.05-0.19,5.82c0.26-0.2,0.52-0.4,0.79-0.61c-2.34-2.36-5.82-2.63-8.79-1.48
				c0.19,0.24,0.38,0.49,0.56,0.73c1.05-2.01,0.93-4.52-1.54-5.42c-2.07-0.75-4.22,0.78-5.46,2.32c0.28,0.12,0.57,0.24,0.85,0.35
				c-0.11-2.04-1.15-4.44-3.43-4.72c-2.23-0.27-3.57,1.75-3.86,3.73c0.28-0.07,0.56-0.15,0.84-0.22c-1.45-1.84-4.12-3.22-6.26-1.64
				c-1.93,1.42-1.3,4.05-0.19,5.82c0.23-0.23,0.46-0.46,0.68-0.68c-1.93-1.25-5.39-2-6.64,0.6c-1.03,2.14,1.18,4.23,2.8,5.3
				c0.08-0.31,0.17-0.62,0.25-0.93c-1.93,0.01-4.88,0.65-5.09,3.01c-0.21,2.32,2.52,3.22,4.38,3.41c-0.08-0.31-0.17-0.62-0.25-0.93
				c-1.52,1.02-2.99,2.79-2.38,4.72c0.85,2.69,3.99,2.82,6.24,2.09c-0.21-0.21-0.41-0.41-0.62-0.62c-2.15,5.11,3.99,7.66,7.14,3.66
				c-0.28-0.07-0.56-0.15-0.84-0.22c0.34,1.98,1.71,4.09,3.96,3.9c2.27-0.2,3.25-2.55,3.31-4.57c-0.28,0.12-0.57,0.24-0.85,0.35
				c1.4,1.74,3.98,3.62,6.22,2.24c2.27-1.39,1.51-4.12,0.15-5.87c-0.35-0.45-1.09,0.13-0.79,0.61c2.2,3.42,5.86,3.98,9.02,1.51
				c-0.28-0.16-0.56-0.32-0.84-0.49c-0.91,2.17-0.54,4.68,1.91,5.59c2,0.74,4.14-0.39,5.45-1.91c-0.28-0.12-0.57-0.24-0.85-0.35
				c0.22,1.99,1.4,4.17,3.68,4.01c2.31-0.16,3.32-2.54,3.37-4.58c-0.33,0.04-0.65,0.09-0.98,0.13c1.62,3.85,5.23,5.28,8.82,2.99
				c-0.24-0.19-0.49-0.38-0.73-0.56c-0.91,2.17-0.54,4.68,1.91,5.59c2,0.74,4.14-0.39,5.45-1.91c-0.28-0.12-0.57-0.24-0.85-0.35
				c0.22,1.99,1.4,4.17,3.68,4.01c2.31-0.16,3.32-2.54,3.37-4.58c-0.33,0.04-0.65,0.09-0.98,0.13c0.65,3.24,3.27,4.26,6.05,2.62
				c-0.24-0.19-0.49-0.38-0.73-0.56c-1.07,3.84,4.64,6.21,6.67,2.92c-0.3-0.13-0.61-0.26-0.91-0.39c-2.15,5.11,3.99,7.66,7.14,3.66
				c-0.28-0.07-0.56-0.15-0.84-0.22c0.96,4.31,6.38,5.22,9.41,2.36c-0.26-0.2-0.52-0.4-0.79-0.61c-2.06,4.63,1.2,9.09,6.2,7.48
				c-0.21-0.21-0.41-0.41-0.62-0.62c-1,2.38-0.31,5.37,2.64,5.71c2.39,0.28,4.87-1.43,6.56-2.97c-0.28-0.16-0.56-0.32-0.84-0.49
				c-1.28,5.64,5.68,9.22,9.84,5.49c-0.26-0.2-0.52-0.4-0.79-0.61c-2.51,4.58,0.69,9.23,5.81,7.57c-0.21-0.21-0.41-0.41-0.62-0.62
				c-2.15,5.11,3.99,7.66,7.14,3.66c-0.28-0.12-0.57-0.24-0.85-0.35c0.41,3.74,3.73,3.78,6.49,2.27c-0.17-0.29-0.34-0.58-0.5-0.86
				c-1.74,0.98-3.29,2.64-2.22,4.76c0.45,0.88,1.48,1.61,2.37,1.99c0.27,0.11,0.61,0.34,0.91,0.38c-1.1-0.17,0.64-0.72-0.45-0.41
				c-1.7,0.49-2.5,3.21-1.84,4.63c1.1,2.37,3.96,2.39,6.1,1.7c-0.21-0.21-0.41-0.41-0.62-0.62c-1,2.38-0.32,5.27,2.57,5.78
				c1.23,0.22,2.4-0.24,3.37-0.96c0.25-0.19,1.04-0.69,1.11-1.04c-0.05,0.28-0.36-0.78-0.47,0.01c-0.31,2.13,2.39,3.96,4.23,3.47
				c1.93-0.51,2.72-2.68,2.76-4.49c-0.28,0.12-0.57,0.24-0.85,0.35c1.4,1.74,3.98,3.62,6.22,2.24c2.27-1.39,1.51-4.12,0.15-5.87
				c-0.24,0.24-0.47,0.47-0.71,0.71c1.56,1.53,4.91,1.68,6.44,0.06c1.95-2.07,0.18-4.6-1.77-5.87c-0.54-0.35-1.04,0.51-0.5,0.86
				c1.69,1.1,3.61,3.9,0.34,4.95c-1.09,0.35-2.92,0.14-3.8-0.71c-0.47-0.46-1.09,0.21-0.71,0.71c1.64,2.11,0.81,5.69-2.56,4.25
				c-0.93-0.4-1.77-1.26-2.4-2.04c-0.29-0.36-0.84-0.04-0.85,0.35c-0.03,1.18-0.41,2.67-1.53,3.23c-1.98,0.99-3.33-0.88-3.53-2.67
				c-0.03-0.29-0.2-0.47-0.5-0.5c-0.63-0.07-0.84,0.48-1.29,0.87c-1.28,1.11-3.06,1.57-4.5,0.31c-1.07-0.93-0.73-2.63-0.26-3.74
				c0.15-0.35-0.28-0.72-0.62-0.62c-1.89,0.61-5.81,0.59-4.95-2.59c0.26-0.96,1.06-1.68,1.88-2.19c0.14-0.08,0.27-0.26,0.25-0.43
				c-0.01-0.07-0.02-0.13-0.02-0.2c-0.03-0.24-0.14-0.4-0.37-0.48c-2.85-0.99-4.05-3.53-0.89-5.32c0.56-0.32,0.06-1.17-0.5-0.86
				c-2.08,1.15-4.68,1.4-4.98-1.4c-0.04-0.37-0.55-0.73-0.85-0.35c-0.56,0.71-1.42,1.51-2.3,1.73c-2.84,0.69-4.15-2.09-3.17-4.42
				c0.15-0.35-0.28-0.72-0.62-0.62c-2.3,0.74-4.81,0.45-5.36-2.52c-0.22-1.2,0.09-2.52,0.68-3.59c0.28-0.51-0.36-0.98-0.79-0.61
				c-3.4,3.05-9.21,0.08-8.16-4.51c0.11-0.49-0.46-0.83-0.84-0.49c-0.95,0.86-2.04,1.61-3.21,2.13c-1.24,0.56-2.95,0.95-4.06-0.16
				c-1.02-1.02-0.75-2.58-0.26-3.74c0.15-0.35-0.28-0.72-0.62-0.62c-2.14,0.69-4.34,0.5-5.26-1.96c-0.48-1.27-0.36-2.8,0.19-4.05
				c0.22-0.5-0.35-1.02-0.79-0.61c-2.47,2.34-6.96,1.59-7.74-1.91c-0.08-0.34-0.6-0.52-0.84-0.22c-0.56,0.71-1.42,1.51-2.3,1.73
				c-2.84,0.69-4.15-2.09-3.17-4.42c0.23-0.54-0.63-0.85-0.91-0.39c-1.44,2.33-5.6,0.56-4.84-2.15c0.12-0.42-0.36-0.79-0.73-0.56
				c-2.31,1.36-4.09,0.45-4.58-2.02c-0.11-0.57-0.97-0.41-0.98,0.13c-0.03,1.18-0.41,2.67-1.53,3.23c-1.98,0.99-3.33-0.88-3.53-2.67
				c-0.04-0.39-0.54-0.72-0.85-0.35c-0.61,0.71-1.54,1.49-2.46,1.71c-2.86,0.69-4.23-2.06-3.23-4.42c0.17-0.41-0.39-0.78-0.73-0.56
				c-3.02,1.93-6.03,0.78-7.36-2.39c-0.21-0.49-0.97-0.47-0.98,0.13c-0.03,1.18-0.41,2.67-1.53,3.23c-1.98,0.99-3.33-0.88-3.53-2.67
				c-0.04-0.39-0.54-0.72-0.85-0.35c-0.61,0.71-1.54,1.49-2.46,1.71c-2.86,0.69-4.23-2.06-3.23-4.42c0.22-0.52-0.5-0.75-0.84-0.49
				c-2.66,2.08-5.68,1.43-7.45-1.31c-0.26,0.2-0.52,0.4-0.79,0.61c1.64,2.11,0.81,5.69-2.56,4.25c-0.93-0.4-1.77-1.26-2.4-2.04
				c-0.29-0.36-0.84-0.04-0.85,0.35c-0.03,1.32-0.55,3.17-2.03,3.52c-1.93,0.46-3-1.56-3.27-3.12c-0.06-0.35-0.61-0.51-0.84-0.22
				c-0.56,0.71-1.42,1.51-2.3,1.73c-2.84,0.69-4.15-2.09-3.17-4.42c0.15-0.35-0.28-0.72-0.62-0.62c-1.96,0.63-5.74,0.57-4.96-2.64
				c0.24-0.98,1.04-1.78,1.87-2.34c0.43-0.29,0.24-0.88-0.25-0.93C3.28,71.7,0.23,70.63,2,68.55c0.78-0.92,2.39-1.11,3.54-1.11
				c0.51,0,0.66-0.66,0.25-0.93c-0.89-0.59-2.79-2.09-2.57-3.3c0.18-0.98,1.58-1.88,2.51-1.91c0.45-0.01,0.98,0.16,1.4,0.3
				c0.52,0.18,1.03,0.43,1.49,0.73c0.42,0.27,0.95-0.27,0.68-0.68c-0.98-1.56-1.66-4.2,0.84-4.83c1.61-0.4,3.07,0.63,4.04,1.87
				c0.22,0.28,0.78,0.13,0.84-0.22c0.22-1.55,1.2-3.51,3.17-2.93c1.46,0.43,2.07,2.28,2.15,3.64c0.02,0.39,0.56,0.72,0.85,0.35
				c0.47-0.58,1.04-1.14,1.67-1.54c2.64-1.69,5.14,0.78,3.76,3.43c-0.18,0.35,0.13,0.9,0.56,0.73c2.63-1.02,5.73-0.88,7.82,1.22
				c0.39,0.4,1.09-0.12,0.79-0.61c-0.99-1.58-1.65-4.19,0.85-4.83c1.65-0.42,3.2,0.63,4.25,1.85c0.31,0.36,0.82,0.04,0.85-0.35
				c0.14-1.74,1.42-3.71,3.44-2.46c1.1,0.68,1.57,2.06,1.63,3.32c0.02,0.39,0.56,0.72,0.85,0.35c0.47-0.58,1.04-1.14,1.67-1.54
				c2.64-1.69,5.14,0.78,3.76,3.43c-0.23,0.44,0.24,0.93,0.68,0.68c2.78-1.53,5.91-1.14,7.47,1.8c0.08,0.15,0.26,0.26,0.43,0.25
				c0.07,0,0.15-0.01,0.22-0.01c0.29-0.02,0.48-0.22,0.5-0.5c0.14-1.74,1.42-3.71,3.44-2.46c1.1,0.68,1.57,2.06,1.63,3.32
				c0.02,0.39,0.56,0.72,0.85,0.35c0.52-0.65,1.19-1.31,1.91-1.71c2.59-1.44,5.03,1,3.52,3.6c-0.2,0.34,0.14,0.91,0.56,0.73
				c1.73-0.7,4.74-1.16,4.88,2.07c0.01,0.35,0.43,0.66,0.75,0.43c1.85-1.31,4.27-0.61,5.17,1.4c0.22,0.5,0.9,0.19,0.93-0.25
				c0.14-1.74,1.42-3.71,3.44-2.46c1.1,0.68,1.57,2.06,1.63,3.32c0.02,0.39,0.56,0.72,0.85,0.35c0.47-0.58,1.04-1.14,1.67-1.54
				c2.64-1.69,5.14,0.78,3.76,3.43c-0.18,0.35,0.13,0.91,0.56,0.73c0.6-0.24,1.25-0.48,1.91-0.52c2-0.11,3.4,1.93,2.23,3.57
				c-0.47,0.66-1.14,1.21-1.82,1.64c0.2,0.26,0.4,0.52,0.61,0.79c1.02-1.09,2.74-1.95,3.94-0.43c0.61,0.78,0.54,2.21,0.51,3.17
				c-0.02,0.55,0.9,0.7,0.98,0.13c0.22-1.55,1.2-3.51,3.17-2.93c1.46,0.43,2.07,2.28,2.15,3.64c0.02,0.39,0.56,0.72,0.85,0.35
				c0.47-0.58,1.04-1.14,1.67-1.54c2.64-1.69,5.14,0.78,3.76,3.43c-0.18,0.35,0.13,0.91,0.56,0.73c0.6-0.24,1.25-0.48,1.91-0.52
				c2-0.11,3.4,1.93,2.23,3.57c-0.47,0.66-1.14,1.21-1.82,1.64c0.17,0.29,0.34,0.58,0.5,0.86c3.39-2.44,8.15,0.49,6.66,4.58
				c-0.11,0.3,0.17,0.65,0.48,0.63c0.07,0,0.15-0.01,0.22-0.01c0.29-0.02,0.48-0.22,0.5-0.5c0.14-1.74,1.42-3.71,3.44-2.46
				c1.1,0.68,1.57,2.06,1.63,3.32c0.02,0.39,0.56,0.72,0.85,0.35c0.47-0.58,1.04-1.14,1.67-1.54c2.64-1.69,5.14,0.78,3.76,3.43
				c-0.18,0.35,0.13,0.91,0.56,0.73c0.6-0.24,1.25-0.48,1.91-0.52c2-0.11,3.4,1.93,2.23,3.57c-0.47,0.66-1.14,1.21-1.82,1.64
				c-0.39,0.24-0.27,0.99,0.25,0.93c0.75-0.08,1.6-0.07,2.32,0.17c2.04,0.71,1.87,3.46-0.15,3.98c0.09,0.32,0.18,0.64,0.27,0.96
				c0.66-0.22,1.61-0.56,2.28-0.44c1.52,0.27,2.9,2.16,2.41,3.73c-0.14,0.45,0.52,0.88,0.84,0.49c0.47-0.58,1.04-1.14,1.67-1.54
				c2.64-1.69,5.14,0.78,3.76,3.43c-0.18,0.35,0.13,0.91,0.56,0.73c0.6-0.24,1.25-0.48,1.91-0.52c2-0.11,3.4,1.93,2.23,3.57
				c-0.47,0.66-1.14,1.21-1.82,1.64c-0.43,0.27-0.24,0.9,0.25,0.93c1.13,0.06,2.88,0.34,3.58,1.3c1.51,2.09-0.99,3.06-2.71,3.15
				c-0.29,0.02-0.47,0.22-0.5,0.5c-0.01,0.07-0.01,0.13-0.02,0.2C160.52,130.81,161.52,130.81,161.57,130.17z"/>
		</g>
	</g>
</g>
</svg>
