<?xml version="1.0" encoding="utf-8"?>
<!-- Generator: Adobe Illustrator 23.0.2, SVG Export Plug-In . SVG Version: 6.00 Build 0)  -->
<svg version="1.1" id="Layer_1" xmlns="http://www.w3.org/2000/svg" xmlns:xlink="http://www.w3.org/1999/xlink" x="0px" y="0px"
	 viewBox="0 0 209.4 209.4" style="enable-background:new 0 0 209.4 209.4;" xml:space="preserve">
<style type="text/css">
	.st0{stroke:#000000;stroke-miterlimit:10;}
	.st1{fill:#FFFFFF;}
</style>
<g>
	<g>
		<path class="st0" d="M52.6,172.6v-18.4h19.8v-18.4h19.8V99.2H52.6v18.3H32.8V80.8h79.1v18.3h19.8v36.7h-19.8v18.4H92.1v18.4
			L52.6,172.6L52.6,172.6z M52.6,209.2v-18.4h39.5v18.4H52.6z"/>
	</g>
	<g>
		<path class="st1" d="M169.7,174.1c0,0-3-3.9-0.4-6.1c2.5-2.1,5.7,1.4,5.7,1.4s0-5.1,4.1-5.3c3.9-0.1,4.2,4.5,4.2,4.5
			s2.2-4.3,5.9-3.1c3.9,1.2,2.1,6,2.1,6s4.3-2.3,6.1,0.4c1.8,2.8-2.3,5.7-2.3,5.7s6.1-0.2,6.1,3.5c0.1,3.8-5.3,3.9-5.3,3.9
			s5.2,2.1,3.9,5.5c-1.3,3.6-6.4,1.9-6.4,1.9s2.4,4-0.4,5.6c-3,1.7-6.2-2.1-6.2-2.1s0.2,5.6-3.7,5.7c-4.1,0.1-3.6-4.9-3.6-4.9
			s-1.6,4.8-5.5,3.6c-3.7-1.1-1.8-6.5-1.8-6.5s-4.2,2.8-6.6,0.4c-2.2-2.3,1.4-5.5,1.4-5.5s-5.4,0.2-5.6-3.6
			c-0.2-3.6,5.4-4.2,5.4-4.2s-5.1-1.5-3.9-5.1C162.7,175.7,164.9,170.1,169.7,174.1z"/>
		<g>
			<path d="M170.1,173.8c-1.2-1.6-2-3.6-0.5-5.1c1.6-1.6,3.6-0.4,5,1c0.3,0.3,0.9,0.1,0.9-0.4c0-2,0.9-4.3,3.1-4.7
				c2.5-0.5,4,1.7,4.2,3.9c0,0.5,0.7,0.7,0.9,0.2c1-1.9,3-3.6,5.3-2.9c2.3,0.8,2.5,3.4,1.8,5.4c-0.2,0.4,0.4,0.8,0.7,0.6
				c1.4-0.7,3.8-1.4,5.1-0.1c1.7,1.8-0.4,4.3-1.9,5.4c-0.4,0.3-0.3,0.9,0.2,0.9c1.7,0,4.5,0.2,5.4,1.9c1.5,3-2.4,4.3-4.6,4.4
				c-0.6,0-0.6,0.8-0.1,1c1.9,0.8,4.8,2.9,3.4,5.3c-1.1,1.9-3.8,1.8-5.6,1.2c-0.4-0.1-0.8,0.4-0.6,0.7c1,1.7,1.6,4.5-1,5.1
				c-1.9,0.5-3.6-0.9-4.8-2.2c-0.3-0.3-0.9-0.1-0.9,0.4c0,2-0.5,4.7-2.8,5.1c-2.7,0.5-3.7-2.1-3.6-4.3c0.1-0.6-0.8-0.6-1-0.1
				c-0.8,2.2-3,4.4-5.5,3c-1.9-1.1-1.5-3.7-0.9-5.5c0.1-0.4-0.4-0.8-0.7-0.6c-1.3,0.8-3.2,1.6-4.7,1.2c-3-0.9-1.4-4.1,0.1-5.5
				c0.3-0.3,0.1-0.9-0.4-0.9c-2.1,0.1-5.3-0.8-5-3.5c0.2-2.2,3-3.1,4.9-3.3c0.5-0.1,0.7-0.8,0.1-1c-1.9-0.6-4.4-2.2-3.5-4.6
				c1.1-2.9,3.9-3.1,6.2-1.3c0.5,0.4,1-0.5,0.5-0.9c-2.8-2.1-6.3-1.8-7.6,1.8c-1.1,3,1.6,5.1,4.2,5.9c0-0.3,0.1-0.6,0.1-1
				c-2.5,0.3-5.8,1.5-5.9,4.5c-0.1,3.2,3.4,4.4,6.1,4.3c-0.1-0.3-0.2-0.6-0.4-0.9c-1.6,1.5-3.2,4.2-1.4,6.2c1.9,2,5.2,1,7.2-0.3
				c-0.2-0.2-0.5-0.4-0.7-0.6c-0.8,2.4-0.9,5.9,1.9,7c3,1.1,5.5-1.2,6.4-3.9c-0.3,0-0.6-0.1-1-0.1c-0.2,2.7,1.3,5.6,4.4,5.4
				c3-0.3,4-3.6,4-6.2c-0.3,0.1-0.6,0.2-0.9,0.4c1.6,1.9,4.6,3.7,7,2.1c2.1-1.4,1.4-4.2,0.3-6.1c-0.2,0.2-0.4,0.5-0.6,0.7
				c2.5,0.8,6,0.6,7.1-2.3c1-2.9-1.9-5.1-4.2-6.1c0,0.3-0.1,0.6-0.1,1c2.7-0.1,6.3-1.5,5.8-4.8c-0.5-2.9-4.2-3.5-6.6-3.5
				c0.1,0.3,0.2,0.6,0.2,0.9c1.9-1.4,4-4.1,2.5-6.4c-1.5-2.3-4.7-1.6-6.7-0.6c0.2,0.2,0.5,0.4,0.7,0.6c0.8-2.3,0.6-5.2-1.9-6.4
				c-2.8-1.3-5.7,0.6-7,3.1c0.3,0.1,0.6,0.2,0.9,0.2c-0.2-2.7-2.1-5.3-5-5c-2.9,0.3-4.3,3.1-4.3,5.8c0.3-0.1,0.6-0.2,0.9-0.4
				c-1.6-1.6-4.3-3.1-6.3-1.4c-2.1,1.8-1.1,4.9,0.3,6.8C169.6,174.8,170.5,174.3,170.1,173.8z"/>
		</g>
	</g>
	<g>
		<path d="M19.2,63.2c12.7-21.9,22.5-38.9,50.5-52.9c33.2-16.6,68.9-9.1,92.5,2.7c19,9.5,45.9,33.5,47.2,66.4
			c1.2,30.3-13.2,62.4-22.2,85.6l-3.9,2l-1.4-2.7c-0.4-14.8-0.9-34.7-22.1-49.4l-5.3,8.2l-12.9,3.7L83.2,87.5l-50.8-12L19.2,63.2"/>
		<g>
			<path d="M19.7,63.4c5-8.8,10.1-17.6,16.4-25.6c6.6-8.4,14.5-15.5,23.5-21.2C70.8,9.5,83.2,4.4,96.5,2.3c12.6-2,25.5-1.3,37.9,1.4
				c19.8,4.3,38.1,13.5,52.3,28c7.6,7.7,13.9,16.8,17.8,26.9c4.5,11.4,5.2,23.4,3.9,35.5c-1.6,14.7-5.9,29-10.8,42.9
				c-2.3,6.4-4.8,12.7-7.3,19c-0.6,1.6-1.3,3.3-1.9,4.9c-0.4,1-0.7,3-1.4,3.8c-0.8,0.9-2.8,1.4-3.9,2c0.2,0.1,0.5,0.1,0.7,0.2
				c-0.8-1.6-1.3-2.7-1.4-4.5c-0.1-2.2-0.2-4.3-0.3-6.5c-0.3-4.8-1-9.6-2.3-14.3c-3.1-11.3-10.2-20.4-19.8-27.1
				c-0.2-0.2-0.6,0-0.7,0.2c-1.6,2.4-3.3,4.8-4.8,7.3c-0.2,0.3-0.9,1-0.3,0.6c-0.3,0.2-0.7,0.2-1,0.3c-1.6,0.4-3.2,0.9-4.8,1.4
				c-1.7,0.5-3.5,1-5.2,1.5c-0.5,0.2-1.1,0.4-1.6,0.4c-0.5,0.1-0.2,0.1,0,0.1c-0.9-0.3-1.9-1.2-2.6-1.7
				c-11.2-7.6-22.5-15.1-33.7-22.7c-5.5-3.7-11-7.4-16.5-11.1c-1.8-1.2-3.8-3.1-5.9-3.8c-4.3-1.6-9.2-2.2-13.6-3.2
				c-7.5-1.8-15-3.6-22.6-5.3c-3.4-0.8-6.7-1.6-10.1-2.4c-1.3-0.3-3-0.4-4.3-1c0.5,0.2-0.3-0.3-0.4-0.4c-0.4-0.4-0.9-0.8-1.3-1.2
				c-1.5-1.4-3.1-2.9-4.6-4.3c-2.2-2.1-4.4-4.1-6.6-6.2c-0.5-0.4-1.2,0.3-0.7,0.7c2,1.8,3.9,3.6,5.8,5.5c2.2,2.1,4.5,4.7,7,6.5
				c0.7,0.5,1.4,0.6,2.4,0.9c2.4,0.6,4.7,1.1,7.1,1.7c13.3,3.2,26.7,6.3,40,9.5c2.2,0.5,3.3,1.4,5.3,2.8c5.2,3.5,10.4,7,15.6,10.5
				c11.8,7.9,23.5,15.8,35.3,23.7c1.1,0.7,2.5,2.1,3.7,2.5c1.6,0.5,4.6-1.1,6.2-1.5c2-0.6,3.9-1.1,5.9-1.7c0.6-0.2,1.2-0.3,1.6-0.7
				c1.2-1,2-3.1,2.9-4.4c0.8-1.2,1.6-2.4,2.4-3.7c-0.2,0.1-0.5,0.1-0.7,0.2c9.9,7,17,16.6,19.8,28.5c1.1,4.6,1.6,9.4,1.9,14.2
				c0.1,1.9-0.1,4.2,0.2,6.1c0.2,1.1,0.9,2.2,1.5,3.2c0.1,0.2,0.4,0.3,0.7,0.2c1.2-0.6,2.7-1.1,3.7-1.9c1.2-1,1.7-3.7,2.3-5.1
				c2.3-5.9,4.7-11.8,6.9-17.7c4.9-13,9.2-26.2,11.7-39.9c2.1-12.2,2.9-24.9-0.2-36.9c-2.8-10.6-8.2-20.4-15.1-28.8
				c-29.1-35.5-84-47.6-124.9-26.4c-11.3,5.8-21.5,13.4-29.8,23c-7.6,8.9-13.5,19.1-19.4,29.3C18.5,63.5,19.3,64,19.7,63.4
				L19.7,63.4z"/>
		</g>
	</g>
	<g>
		<path class="st1" d="M158,117.7c15.8-14.7,19.3-39.4,16.5-58.6c1.2,10.3-0.4,21-4.9,30.6c0.9-14.3-11.5-37.8-13.5-40.7
			c10,18.5,13.8,39.2,6.7,58.8c-1.8,6.7-5.9,12.6-9.3,17.5"/>
		<g>
			<path d="M158.4,118c15.7-14.9,19.6-38.5,16.6-59.1c-0.1-0.5-1-0.4-1,0.1c1.1,10.4-0.5,20.8-4.8,30.3c0.3,0.1,0.6,0.2,0.9,0.2
				c0.4-8.5-2.6-17-5.7-24.8c-2.2-5.4-4.6-11.3-7.9-16.2c-0.4-0.5-1.2-0.1-0.9,0.5c6.4,12,10.6,25.4,10.2,39.1
				c-0.2,6.8-1.6,13.2-3.7,19.7c-2,6.2-5.5,11.6-9.2,17c-0.4,0.5,0.5,1,0.9,0.5c3.6-5.3,7.1-10.7,9.1-16.8
				c2.2-6.7,3.7-13.3,3.9-20.4c0.3-13.9-3.9-27.4-10.4-39.6c-0.3,0.2-0.6,0.3-0.9,0.5c3.3,4.8,5.6,10.5,7.8,15.9
				c3.1,7.6,6.1,16.1,5.6,24.5c0,0.5,0.7,0.7,0.9,0.2c4.4-9.7,6.1-20.2,4.9-30.8c-0.3,0-0.6,0.1-1,0.1c2.9,20.3-1,43.5-16.4,58.1
				C157.2,117.8,157.9,118.5,158.4,118L158.4,118z"/>
		</g>
	</g>
	<g>
		<path class="st1" d="M161.1,130.2l0-0.2c0,0,4.1-0.2,3.8-2.7c-0.3-2.6-4.7-2.8-4.7-2.8s4.1-2.5,2.2-4.9c-1.5-1.8-3.7-1.2-4.9-0.7
			c0.6-1.1,1.3-3.1-0.7-4.4c-2.7-1.8-5.6,1.9-5.6,1.9s0.7-1.9-1.3-3.9c-1-1-4,0-4,0s2.3-0.5,2-3c-0.3-2.6-4.3-2.1-4.3-2.1
			s4.1-2.5,2.2-4.9c-1.5-1.8-3.7-1.2-4.9-0.7c0.6-1.1,1.3-3.1-0.7-4.4c-2.7-1.8-5.6,1.9-5.6,1.9s-0.1-3.9-3.1-4.2
			c-2.8-0.3-3,3.4-3,3.4l-0.2,0c0,0,1.5-3.9-2.5-5.9c-2.4-1.2-4.9,0.8-4.9,0.8s4.1-2.5,2.2-4.9c-1.5-1.8-3.7-1.2-4.9-0.7
			c0.6-1.1,1.3-3.1-0.7-4.4c-2.7-1.8-5.6,1.9-5.6,1.9s-0.2-3.9-3.1-4.2c-2.8-0.3-3.2,3.4-3.2,3.4s0.1-2.9-0.9-3.9
			c-2-2-4.4,0.7-4.4,0.7s4.1-2.5,2.2-4.9c-1.5-1.8-3.7-1.2-4.9-0.7c0.6-1.1,1.3-3.1-0.7-4.4c-2.7-1.8-5.6,1.9-5.6,1.9
			s-0.2-3.9-3.1-4.2c-2.8-0.3-3,3.4-3,3.4S84,68.5,80,70.5c-0.1,0-0.2,0.1-0.2,0.2c0.1-0.6-0.1-1.3-0.6-1.9
			c-1.5-1.8-3.7-1.2-4.9-0.7c0.6-1.1,1.8-2.6-0.7-4.4c-2.6-1.9-5.6,1.9-5.6,1.9s-0.2-3.9-3.1-4.2c-2.8-0.3-3,3.4-3,3.4l-0.2,0
			c0,0-2.7-5.3-8.2-2c0.6-1,1.3-3-0.7-4.4c-2.7-1.8-5.6,1.9-5.6,1.9s-0.2-3.9-3.1-4.2c-2.8-0.3-3,3.4-3,3.4s-2.8-3.4-5.6-1.7
			c-2.7,1.6-0.3,5.3-0.3,5.3s-3.4-3.5-8.3-1.4c0.6-1,1.3-3-0.7-4.4c-2.7-1.8-5.6,1.9-5.6,1.9s-0.1-3.9-3.1-4.2
			c-2.8-0.3-3.2,3.4-3.2,3.4s-2.6-3.4-5.4-1.8c-2.7,1.6-0.3,5.3-0.3,5.3s-3.7-2.5-5.7,0c-1.9,2.3,2.3,5.1,2.3,5.1s-4.4,0-4.6,2.6
			c-0.2,2.5,3.9,2.8,3.9,2.8s-3.7,2.4-1.7,5c1.5,2,4.1,1.3,5.2,0.9c-0.4,0.9-1.2,3.3,0.9,4.7c2.9,1.8,5.4-1.5,5.4-1.5
			s0.6,3.7,3.3,3.6c2.9-0.2,2.9-4.1,2.9-4.1s3,3.8,5.6,2.2c2.8-1.7,0-5.1,0-5.1s3.5,5.5,8.2,1.4c-0.4,0.9-1.2,3.3,1,4.7
			c2.9,1.8,5.6-1.5,5.6-1.5s0.3,3.7,3.1,3.5c2.9-0.2,2.9-4.1,2.9-4.1s2.6,6.5,8.1,2.7c-0.4,0.9-1.2,3.3,1,4.7
			c2.9,1.8,5.6-1.5,5.6-1.5s0.3,3.7,3.1,3.5c2.9-0.2,2.9-4.1,2.9-4.1s0.9,5.2,5.3,2.3c-1.4,3.9,4.6,4.9,5.8,2.5
			c-0.4,0.9-1.2,3.3,0.9,4.7c2.9,1.8,5.3-1.5,5.3-1.5s0.6,3.1,3.3,3.6c3.2,0.6,5.2-1.4,5.2-1.4s-1.5,3.2,0.4,5.8
			c1.5,2,4.1,1.3,5.2,0.9c-0.4,0.9-1.2,3.3,0.9,4.7c2.9,1.8,7.4-2.4,7.4-2.4s-1,4,3,6c3.2,1.6,6-1,6-1s-1.9,3.3,0.1,5.9
			c1.5,2,4.1,1.3,5.2,0.9c-0.4,0.9-1.2,3.3,0.9,4.7c2.9,1.8,5.4-1.5,5.4-1.5s0.4,5,5.7,1.8c-2.3,1.2-2.3,2.2-2.3,3.2
			c0,2,3.3,3.1,3.3,3.1l0,0.2c0,0-3.7,2.2-1.7,4.8c1.5,2,4.1,1.3,5.2,0.9c-0.4,0.9-1.2,3.3,0.9,4.7c2.9,1.8,5.4-1.5,5.4-1.5l0.2,0
			c0,0,0.3,3.7,3.1,3.5c2.9-0.2,2.9-4.1,2.9-4.1s3,3.8,5.6,2.2c2.8-1.7,0.1-5.1,0.1-5.1l0.3,0.3c0,0,3.8,1.9,5.6-0.5
			C164.9,132.5,161.1,130.2,161.1,130.2z"/>
		<g>
			<path d="M161.6,130.2c0,0.3-0.7,0.3,0.3,0.2c0.6,0,1.2-0.2,1.7-0.4c1.1-0.5,1.9-1.3,1.8-2.6c-0.2-2.4-3.2-3.2-5.2-3.3
				c0.1,0.3,0.2,0.6,0.2,0.9c1.4-0.9,3.3-2.6,2.9-4.5c-0.6-2.8-3.9-2.9-6-2c0.2,0.2,0.4,0.5,0.6,0.7c1.1-2,0.9-4.5-1.5-5.4
				c-2.1-0.8-4.2,0.8-5.5,2.3c0.3,0.2,0.6,0.3,0.8,0.5c0.5-1.5-0.3-3.5-1.5-4.4c-1.2-1-3.1-0.6-4.4-0.1c-0.6,0.2-0.4,1.1,0.3,1
				c1.8-0.5,2.9-2.4,2.2-4.2c-0.7-1.8-3-2.1-4.6-2c0.1,0.3,0.2,0.6,0.2,0.9c1.4-0.9,3.3-2.6,2.9-4.5c-0.6-2.8-3.9-2.9-6-2
				c0.2,0.2,0.4,0.5,0.6,0.7c1.1-2,0.9-4.5-1.5-5.4c-2.1-0.8-4.2,0.8-5.5,2.3c0.3,0.1,0.6,0.2,0.9,0.3c-0.1-2.1-1.2-4.5-3.6-4.7
				c-1.2-0.1-2.2,0.5-2.8,1.4c-0.3,0.5-0.6,1.2-0.6,1.7c-0.1,0.9-0.2,0.2,0.2,0.2c0.2,0.2,0.3,0.4,0.5,0.6c1.8-5-4-8.7-8.1-5.7
				c-0.5,0.4-0.1,1.2,0.5,0.9c1.4-0.9,3.3-2.6,2.9-4.5c-0.6-2.8-3.9-2.9-6-2c0.2,0.2,0.4,0.5,0.6,0.7c1.1-2,0.9-4.5-1.5-5.4
				c-2.1-0.8-4.2,0.8-5.5,2.3c0.3,0.1,0.6,0.2,0.8,0.3c-0.1-2-1.2-4.4-3.4-4.7c-2.2-0.3-3.6,1.8-3.9,3.7c0.3,0,0.7,0.1,1,0.1
				c0.1-1.6-0.1-3.8-1.7-4.7c-1.6-0.8-3.3,0.1-4.4,1.3c-0.4,0.4,0.1,1.1,0.6,0.8c1.4-0.9,3.3-2.6,2.9-4.5c-0.6-2.8-3.9-2.9-6-2
				c0.2,0.2,0.4,0.5,0.6,0.7c1.1-2,0.9-4.5-1.5-5.4c-2.1-0.8-4.2,0.8-5.5,2.3c0.3,0.1,0.6,0.2,0.8,0.3C92,71,91,68.6,88.7,68.4
				c-2.3-0.2-3.4,1.9-3.6,3.9c0.3-0.1,0.6-0.2,0.9-0.2c-1.1-2.5-4.3-3.3-6.5-1.8c0.2,0.1,0.5,0.3,0.8,0.4c-0.1-3.4-3.5-4.1-6.1-3
				c0.2,0.2,0.4,0.5,0.6,0.7c1.2-2.1,1.1-4.4-1.5-5.4c-2.1-0.8-4.3,0.8-5.5,2.3c0.3,0.1,0.6,0.2,0.8,0.3c-0.1-1.7-0.8-3.6-2.3-4.4
				c-2.1-1-3.9,0.3-4.5,2.3c-0.1,0.2-0.3,0.8-0.2,1c0,0.1,0.6-0.2,0.6-0.2c0-0.5-1.1-1.5-1.5-1.8c-2.2-1.8-4.8-1.5-7.2-0.2
				c0.2,0.2,0.5,0.5,0.7,0.7c1-2,0.9-4.5-1.5-5.4c-2.1-0.8-4.2,0.8-5.5,2.3c0.3,0.1,0.6,0.2,0.8,0.3c-0.1-2.1-1.2-4.5-3.5-4.7
				c-2.3-0.2-3.4,1.9-3.6,3.9c0.3-0.1,0.6-0.2,0.8-0.3c-1.5-1.8-4.3-3.2-6.5-1.6c-1.9,1.4-1.3,4-0.2,5.8c0.3-0.2,0.5-0.4,0.8-0.6
				c-2.3-2.4-5.8-2.6-8.8-1.5c0.2,0.2,0.4,0.5,0.6,0.7c1-2,0.9-4.5-1.5-5.4c-2.1-0.8-4.2,0.8-5.5,2.3c0.3,0.1,0.6,0.2,0.9,0.3
				c-0.1-2-1.1-4.4-3.4-4.7c-2.2-0.3-3.6,1.8-3.9,3.7c0.3-0.1,0.6-0.2,0.8-0.2c-1.4-1.8-4.1-3.2-6.3-1.6c-1.9,1.4-1.3,4-0.2,5.8
				c0.2-0.2,0.5-0.5,0.7-0.7c-1.9-1.2-5.4-2-6.6,0.6c-1,2.1,1.2,4.2,2.8,5.3c0.1-0.3,0.2-0.6,0.2-0.9c-1.9,0-4.9,0.7-5.1,3
				c-0.2,2.3,2.5,3.2,4.4,3.4c-0.1-0.3-0.2-0.6-0.2-0.9c-1.5,1-3,2.8-2.4,4.7c0.8,2.7,4,2.8,6.2,2.1c-0.2-0.2-0.4-0.4-0.6-0.6
				c-2.2,5.1,4,7.7,7.1,3.7c-0.3-0.1-0.6-0.2-0.8-0.2c0.3,2,1.7,4.1,4,3.9c2.3-0.2,3.2-2.6,3.3-4.6c-0.3,0.1-0.6,0.2-0.9,0.3
				c1.4,1.7,4,3.6,6.2,2.2c2.3-1.4,1.5-4.1,0.1-5.9c-0.4-0.4-1.1,0.1-0.8,0.6c2.2,3.4,5.9,4,9,1.5c-0.3-0.2-0.6-0.3-0.8-0.5
				c-0.9,2.2-0.5,4.7,1.9,5.6c2,0.7,4.1-0.4,5.5-1.9c-0.3-0.1-0.6-0.2-0.8-0.3c0.2,2,1.4,4.2,3.7,4c2.3-0.2,3.3-2.5,3.4-4.6
				c-0.3,0-0.7,0.1-1,0.1c1.6,3.8,5.2,5.3,8.8,3c-0.2-0.2-0.5-0.4-0.7-0.6c-0.9,2.2-0.5,4.7,1.9,5.6c2,0.7,4.1-0.4,5.5-1.9
				c-0.3-0.1-0.6-0.2-0.8-0.3c0.2,2,1.4,4.2,3.7,4c2.3-0.2,3.3-2.5,3.4-4.6c-0.3,0-0.7,0.1-1,0.1c0.7,3.2,3.3,4.3,6.1,2.6
				c-0.2-0.2-0.5-0.4-0.7-0.6c-1.1,3.8,4.6,6.2,6.6,2.9c-0.3-0.1-0.6-0.2-0.9-0.4c-2.2,5.1,4,7.7,7.1,3.7c-0.3-0.1-0.6-0.2-0.8-0.2
				c1,4.3,6.4,5.2,9.4,2.4c-0.3-0.2-0.5-0.4-0.8-0.6c-2.1,4.6,1.2,9.1,6.2,7.5c-0.2-0.2-0.4-0.4-0.6-0.6c-1,2.4-0.3,5.4,2.6,5.7
				c2.4,0.3,4.9-1.4,6.6-3c-0.3-0.2-0.6-0.3-0.8-0.5c-1.3,5.6,5.7,9.2,9.8,5.5c-0.3-0.2-0.5-0.4-0.8-0.6c-2.5,4.6,0.7,9.2,5.8,7.6
				c-0.2-0.2-0.4-0.4-0.6-0.6c-2.2,5.1,4,7.7,7.1,3.7c-0.3-0.1-0.6-0.2-0.8-0.3c0.4,3.7,3.7,3.8,6.5,2.3c-0.2-0.3-0.3-0.6-0.5-0.9
				c-1.7,1-3.3,2.6-2.2,4.8c0.4,0.9,1.5,1.6,2.4,2c0.3,0.1,0.6,0.3,0.9,0.4c-1.1-0.2,0.6-0.7-0.4-0.4c-1.7,0.5-2.5,3.2-1.8,4.6
				c1.1,2.4,4,2.4,6.1,1.7c-0.2-0.2-0.4-0.4-0.6-0.6c-1,2.4-0.3,5.3,2.6,5.8c1.2,0.2,2.4-0.2,3.4-1c0.2-0.2,1-0.7,1.1-1
				c-0.1,0.3-0.4-0.8-0.5,0c-0.3,2.1,2.4,4,4.2,3.5c1.9-0.5,2.7-2.7,2.8-4.5c-0.3,0.1-0.6,0.2-0.9,0.4c1.4,1.7,4,3.6,6.2,2.2
				c2.3-1.4,1.5-4.1,0.1-5.9c-0.2,0.2-0.5,0.5-0.7,0.7c1.6,1.5,4.9,1.7,6.4,0.1c1.9-2.1,0.2-4.6-1.8-5.9c-0.5-0.4-1,0.5-0.5,0.9
				c1.7,1.1,3.6,3.9,0.3,4.9c-1.1,0.4-2.9,0.1-3.8-0.7c-0.5-0.5-1.1,0.2-0.7,0.7c1.6,2.1,0.8,5.7-2.6,4.2c-0.9-0.4-1.8-1.3-2.4-2
				c-0.3-0.4-0.8,0-0.9,0.4c0,1.2-0.4,2.7-1.5,3.2c-2,1-3.3-0.9-3.5-2.7c0-0.3-0.2-0.5-0.5-0.5c-0.6-0.1-0.8,0.5-1.3,0.9
				c-1.3,1.1-3.1,1.6-4.5,0.3c-1.1-0.9-0.7-2.6-0.3-3.7c0.1-0.4-0.3-0.7-0.6-0.6c-1.9,0.6-5.8,0.6-4.9-2.6c0.3-1,1.1-1.7,1.9-2.2
				c0.1-0.1,0.3-0.3,0.2-0.4c0-0.1,0-0.1,0-0.2c0-0.2-0.1-0.4-0.4-0.5c-2.9-1-4.1-3.5-0.9-5.3c0.6-0.3,0.1-1.2-0.5-0.9
				c-2.1,1.2-4.7,1.4-5-1.4c0-0.4-0.6-0.7-0.9-0.3c-0.6,0.7-1.4,1.5-2.3,1.7c-2.8,0.7-4.2-2.1-3.2-4.4c0.2-0.3-0.3-0.7-0.6-0.6
				c-2.3,0.7-4.8,0.4-5.4-2.5c-0.2-1.2,0.1-2.5,0.7-3.6c0.3-0.5-0.4-1-0.8-0.6c-3.4,3.1-9.2,0.1-8.2-4.5c0.1-0.5-0.5-0.8-0.8-0.5
				c-0.9,0.9-2,1.6-3.2,2.1c-1.2,0.6-2.9,0.9-4.1-0.2c-1-1-0.8-2.6-0.3-3.7c0.2-0.3-0.3-0.7-0.6-0.6c-2.1,0.7-4.3,0.5-5.3-2
				c-0.5-1.3-0.4-2.8,0.2-4.1c0.2-0.5-0.3-1-0.8-0.6c-2.5,2.3-7,1.6-7.7-1.9c-0.1-0.3-0.6-0.5-0.8-0.2c-0.6,0.7-1.4,1.5-2.3,1.7
				c-2.8,0.7-4.2-2.1-3.2-4.4c0.2-0.5-0.6-0.8-0.9-0.4c-1.4,2.3-5.6,0.6-4.8-2.2c0.1-0.4-0.4-0.8-0.7-0.6c-2.3,1.4-4.1,0.4-4.6-2
				c-0.1-0.6-1-0.4-1,0.1c0,1.2-0.4,2.7-1.5,3.2c-2,1-3.3-0.9-3.5-2.7c0-0.4-0.5-0.7-0.8-0.3c-0.6,0.7-1.5,1.5-2.5,1.7
				c-2.9,0.7-4.2-2.1-3.2-4.4c0.2-0.4-0.4-0.8-0.7-0.6c-3,1.9-6,0.8-7.4-2.4c-0.2-0.5-1-0.5-1,0.1c0,1.2-0.4,2.7-1.5,3.2
				c-2,1-3.3-0.9-3.5-2.7c0-0.4-0.5-0.7-0.8-0.3c-0.6,0.7-1.5,1.5-2.5,1.7c-2.9,0.7-4.2-2.1-3.2-4.4c0.2-0.5-0.5-0.8-0.8-0.5
				c-2.7,2.1-5.7,1.4-7.5-1.3c-0.3,0.2-0.5,0.4-0.8,0.6c1.6,2.1,0.8,5.7-2.6,4.2c-0.9-0.4-1.8-1.3-2.4-2c-0.3-0.4-0.8,0-0.9,0.3
				c0,1.3-0.5,3.2-2,3.5c-1.9,0.5-3-1.6-3.3-3.1c-0.1-0.3-0.6-0.5-0.8-0.2c-0.6,0.7-1.4,1.5-2.3,1.7c-2.8,0.7-4.2-2.1-3.2-4.4
				c0.1-0.3-0.3-0.7-0.6-0.6c-2,0.6-5.7,0.6-5-2.6c0.2-1,1-1.8,1.9-2.3c0.4-0.3,0.2-0.9-0.2-0.9c-1.5-0.1-4.5-1.1-2.8-3.2
				c0.8-0.9,2.4-1.1,3.5-1.1c0.5,0,0.7-0.7,0.2-0.9c-0.9-0.6-2.8-2.1-2.6-3.3c0.2-1,1.6-1.9,2.5-1.9c0.4,0,1,0.2,1.4,0.3
				c0.5,0.2,1,0.4,1.5,0.7c0.4,0.3,0.9-0.3,0.7-0.7c-1-1.6-1.7-4.2,0.8-4.8c1.6-0.4,3.1,0.6,4,1.9c0.2,0.3,0.8,0.1,0.8-0.2
				c0.2-1.5,1.2-3.5,3.2-2.9c1.5,0.4,2.1,2.3,2.1,3.6c0,0.4,0.6,0.7,0.9,0.3c0.5-0.6,1-1.1,1.7-1.5c2.6-1.7,5.1,0.8,3.8,3.4
				c-0.2,0.3,0.1,0.9,0.6,0.7c2.6-1,5.7-0.9,7.8,1.2c0.4,0.4,1.1-0.1,0.8-0.6c-1-1.6-1.7-4.2,0.8-4.8c1.7-0.4,3.2,0.6,4.2,1.8
				c0.3,0.4,0.8,0,0.8-0.3c0.1-1.7,1.4-3.7,3.4-2.5c1.1,0.7,1.6,2.1,1.6,3.3c0,0.4,0.6,0.7,0.8,0.3c0.5-0.6,1-1.1,1.7-1.5
				c2.6-1.7,5.1,0.8,3.8,3.4c-0.2,0.4,0.2,0.9,0.7,0.7c2.8-1.5,5.9-1.1,7.5,1.8c0.1,0.2,0.3,0.3,0.4,0.2c0.1,0,0.2,0,0.2,0
				c0.3,0,0.5-0.2,0.5-0.5c0.1-1.7,1.4-3.7,3.4-2.5c1.1,0.7,1.6,2.1,1.6,3.3c0,0.4,0.6,0.7,0.8,0.3c0.5-0.7,1.2-1.3,1.9-1.7
				c2.6-1.4,5,1,3.5,3.6c-0.2,0.3,0.1,0.9,0.6,0.7c1.7-0.7,4.7-1.2,4.9,2.1c0,0.3,0.4,0.7,0.8,0.4c1.8-1.3,4.3-0.6,5.2,1.4
				c0.2,0.5,0.9,0.2,0.9-0.2c0.1-1.7,1.4-3.7,3.4-2.5c1.1,0.7,1.6,2.1,1.6,3.3c0,0.4,0.6,0.7,0.8,0.3c0.5-0.6,1-1.1,1.7-1.5
				c2.6-1.7,5.1,0.8,3.8,3.4c-0.2,0.3,0.1,0.9,0.6,0.7c0.6-0.2,1.2-0.5,1.9-0.5c2-0.1,3.4,1.9,2.2,3.6c-0.5,0.7-1.1,1.2-1.8,1.6
				c0.2,0.3,0.4,0.5,0.6,0.8c1-1.1,2.7-1.9,3.9-0.4c0.6,0.8,0.5,2.2,0.5,3.2c0,0.6,0.9,0.7,1,0.1c0.2-1.6,1.2-3.5,3.2-2.9
				c1.5,0.4,2.1,2.3,2.2,3.6c0,0.4,0.6,0.7,0.8,0.3c0.5-0.6,1-1.1,1.7-1.5c2.6-1.7,5.1,0.8,3.8,3.4c-0.2,0.3,0.1,0.9,0.6,0.7
				c0.6-0.2,1.2-0.5,1.9-0.5c2-0.1,3.4,1.9,2.2,3.6c-0.5,0.7-1.1,1.2-1.8,1.6c0.2,0.3,0.3,0.6,0.5,0.9c3.4-2.4,8.1,0.5,6.7,4.6
				c-0.1,0.3,0.2,0.7,0.5,0.6c0.1,0,0.1,0,0.2,0c0.3,0,0.5-0.2,0.5-0.5c0.1-1.7,1.4-3.7,3.4-2.5c1.1,0.7,1.6,2.1,1.6,3.3
				c0,0.4,0.6,0.7,0.9,0.3c0.5-0.6,1-1.1,1.7-1.5c2.6-1.7,5.1,0.8,3.8,3.4c-0.2,0.3,0.1,0.9,0.6,0.7c0.6-0.2,1.2-0.5,1.9-0.5
				c2-0.1,3.4,1.9,2.2,3.6c-0.5,0.7-1.1,1.2-1.8,1.6c-0.4,0.2-0.3,1,0.2,0.9c0.8-0.1,1.6-0.1,2.3,0.2c2,0.7,1.9,3.5-0.1,4
				c0.1,0.3,0.2,0.6,0.3,1c0.7-0.2,1.6-0.6,2.3-0.4c1.5,0.3,2.9,2.2,2.4,3.7c-0.1,0.4,0.5,0.9,0.8,0.5c0.5-0.6,1-1.1,1.7-1.5
				c2.6-1.7,5.1,0.8,3.8,3.4c-0.2,0.3,0.1,0.9,0.6,0.7c0.6-0.2,1.2-0.5,1.9-0.5c2-0.1,3.4,1.9,2.2,3.6c-0.5,0.7-1.1,1.2-1.8,1.6
				c-0.4,0.3-0.2,0.9,0.2,0.9c1.1,0.1,2.9,0.3,3.6,1.3c1.5,2.1-1,3.1-2.7,3.2c-0.3,0-0.5,0.2-0.5,0.5c0,0.1,0,0.1,0,0.2
				C160.5,130.8,161.5,130.8,161.6,130.2z"/>
		</g>
	</g>
</g>
</svg>
